<svg version="1.2" xmlns="http://www.w3.org/2000/svg" viewBox="0 0 2475 1650" width="2475" height="1650">
	<title>12084798_20943953-ai</title>
	<defs>
		<linearGradient id="g1" x2="1" gradientUnits="userSpaceOnUse" gradientTransform="matrix(-2243.029,0,0,-1265.758,2359.011,1437.249)">
			<stop offset="0" stop-color="#dae3fe"/>
			<stop offset="1" stop-color="#e9effd"/>
		</linearGradient>
		<linearGradient id="g2" x2="1" gradientUnits="userSpaceOnUse" gradientTransform="matrix(61.776,1467.189,-2437.052,102.611,1426.712,464.717)">
			<stop offset="0" stop-color="#fe7062"/>
			<stop offset="1" stop-color="#ff928e"/>
		</linearGradient>
		<linearGradient id="g3" x2="1" gradientUnits="userSpaceOnUse" gradientTransform="matrix(63.661,1511.961,-2547.701,107.27,1439.215,104.602)">
			<stop offset="0" stop-color="#e1473d"/>
			<stop offset="1" stop-color="#e9605a"/>
		</linearGradient>
		<linearGradient id="g4" x2="1" gradientUnits="userSpaceOnUse" gradientTransform="matrix(597.632,603.35,-376.206,372.641,1418.043,667.694)">
			<stop offset="0" stop-color="#09005d"/>
			<stop offset="1" stop-color="#1a0f91"/>
		</linearGradient>
		<linearGradient id="g5" x2="1" gradientUnits="userSpaceOnUse" gradientTransform="matrix(-35.009,-158.611,66.058,-14.58,1418.643,1506.648)">
			<stop offset="0" stop-color="#ff928e"/>
			<stop offset="1" stop-color="#feb3b1"/>
		</linearGradient>
		<linearGradient id="g6" x2="1" gradientUnits="userSpaceOnUse" gradientTransform="matrix(5.771,50.494,-59.496,6.799,1637.07,1411.293)">
			<stop offset="0" stop-color="#4042e2"/>
			<stop offset="1" stop-color="#4f52ff"/>
		</linearGradient>
		<linearGradient id="g7" x2="1" gradientUnits="userSpaceOnUse" gradientTransform="matrix(-80.172,195.202,-82.606,-33.928,1800.031,1126.707)">
			<stop offset="0" stop-color="#ff928e"/>
			<stop offset="1" stop-color="#feb3b1"/>
		</linearGradient>
		<linearGradient id="g8" x2="1" gradientUnits="userSpaceOnUse" gradientTransform="matrix(102.431,200.343,-261.685,133.794,1673.035,1269.521)">
			<stop offset="0" stop-color="#09005d"/>
			<stop offset="1" stop-color="#1a0f91"/>
		</linearGradient>
		<linearGradient id="g9" x2="1" gradientUnits="userSpaceOnUse" gradientTransform="matrix(2.732,23.909,-105.584,12.067,1523.443,1444.509)">
			<stop offset="0" stop-color="#4042e2"/>
			<stop offset="1" stop-color="#4f52ff"/>
		</linearGradient>
		<linearGradient id="g10" x2="1" gradientUnits="userSpaceOnUse" gradientTransform="matrix(88.051,191.641,-146.855,67.474,1720.685,1142.674)">
			<stop offset="0" stop-color="#4042e2"/>
			<stop offset="1" stop-color="#4f52ff"/>
		</linearGradient>
		<linearGradient id="g11" x2="1" gradientUnits="userSpaceOnUse" gradientTransform="matrix(39.561,96.883,-68.189,27.844,1650.282,1109.283)">
			<stop offset="0" stop-color="#ff928e"/>
			<stop offset="1" stop-color="#feb3b1"/>
		</linearGradient>
		<linearGradient id="g12" x2="1" gradientUnits="userSpaceOnUse" gradientTransform="matrix(51.984,-5.401,5.647,54.351,1614.637,1092.517)">
			<stop offset="0" stop-color="#ff928e"/>
			<stop offset="1" stop-color="#feb3b1"/>
		</linearGradient>
		<linearGradient id="g13" x2="1" gradientUnits="userSpaceOnUse" gradientTransform="matrix(639.405,645.523,-457.131,452.798,1336.094,710.809)">
			<stop offset="0" stop-color="#09005d"/>
			<stop offset="1" stop-color="#1a0f91"/>
		</linearGradient>
		<linearGradient id="g14" x2="1" gradientUnits="userSpaceOnUse" gradientTransform="matrix(14.478,-1.504,1.726,16.61,1649.632,1118.258)">
			<stop offset="0" stop-color="#ff928e"/>
			<stop offset="1" stop-color="#feb3b1"/>
		</linearGradient>
		<linearGradient id="g15" x2="1" gradientUnits="userSpaceOnUse" gradientTransform="matrix(-160.787,-14.307,4.039,-45.393,1815.089,1293.776)">
			<stop offset="0" stop-color="#ff928e"/>
			<stop offset="1" stop-color="#feb3b1"/>
		</linearGradient>
		<linearGradient id="g16" x2="1" gradientUnits="userSpaceOnUse" gradientTransform="matrix(19.73,-124.109,30.754,4.889,1141.193,1369.476)">
			<stop offset="0" stop-color="#4042e2"/>
			<stop offset="1" stop-color="#4f52ff"/>
		</linearGradient>
		<linearGradient id="g17" x2="1" gradientUnits="userSpaceOnUse" gradientTransform="matrix(20.694,-130.174,585.814,93.13,1676.388,1453.988)">
			<stop offset="0" stop-color="#4042e2"/>
			<stop offset="1" stop-color="#4f52ff"/>
		</linearGradient>
		<linearGradient id="g18" x2="1" gradientUnits="userSpaceOnUse" gradientTransform="matrix(21.093,-132.682,325.785,51.792,1654.894,1458.286)">
			<stop offset="0" stop-color="#4042e2"/>
			<stop offset="1" stop-color="#4f52ff"/>
		</linearGradient>
		<linearGradient id="g19" x2="1" gradientUnits="userSpaceOnUse" gradientTransform="matrix(-83.422,27.361,-10.592,-32.294,1701.655,1259.434)">
			<stop offset="0" stop-color="#09005d"/>
			<stop offset="1" stop-color="#1a0f91"/>
		</linearGradient>
		<linearGradient id="g20" x2="1" gradientUnits="userSpaceOnUse" gradientTransform="matrix(145.998,-100.576,147.781,214.522,1439.193,1247.831)">
			<stop offset="0" stop-color="#09005d"/>
			<stop offset="1" stop-color="#1a0f91"/>
		</linearGradient>
		<linearGradient id="g21" x2="1" gradientUnits="userSpaceOnUse" gradientTransform="matrix(428.421,0,0,19.04,1391.502,1279.511)">
			<stop offset="0" stop-color="#dae3fe"/>
			<stop offset="1" stop-color="#e9effd"/>
		</linearGradient>
		<linearGradient id="g22" x2="1" gradientUnits="userSpaceOnUse" gradientTransform="matrix(84.573,0,0,191.174,1416.109,1287.347)">
			<stop offset="0" stop-color="#dae3fe"/>
			<stop offset="1" stop-color="#e9effd"/>
		</linearGradient>
		<linearGradient id="g23" x2="1" gradientUnits="userSpaceOnUse" gradientTransform="matrix(84.573,0,0,191.174,1425.875,1287.346)">
			<stop offset="0" stop-color="#dae3fe"/>
			<stop offset="1" stop-color="#e9effd"/>
		</linearGradient>
		<linearGradient id="g24" x2="1" gradientUnits="userSpaceOnUse" gradientTransform="matrix(84.573,0,0,191.174,1720.146,1287.347)">
			<stop offset="0" stop-color="#dae3fe"/>
			<stop offset="1" stop-color="#e9effd"/>
		</linearGradient>
		<linearGradient id="g25" x2="1" gradientUnits="userSpaceOnUse" gradientTransform="matrix(84.573,0,0,191.174,1729.911,1287.346)">
			<stop offset="0" stop-color="#dae3fe"/>
			<stop offset="1" stop-color="#e9effd"/>
		</linearGradient>
		<clipPath clipPathUnits="userSpaceOnUse" id="cp1">
			<path d="m684.02 755l554.24 334.55 522.62-314.78v-487.35h-1033.34z"/>
		</clipPath>
		<linearGradient id="g26" x2="1" gradientUnits="userSpaceOnUse" gradientTransform="matrix(-113.694,1190.45,-1172.237,-111.955,1527.152,261.245)">
			<stop offset="0" stop-color="#4042e2"/>
			<stop offset="1" stop-color="#4f52ff"/>
		</linearGradient>
		<linearGradient id="g27" x2="1" gradientUnits="userSpaceOnUse" gradientTransform="matrix(156.875,656.311,-551.224,131.756,1983.982,749.693)">
			<stop offset="0" stop-color="#4042e2"/>
			<stop offset="1" stop-color="#4f52ff"/>
		</linearGradient>
		<linearGradient id="g28" x2="1" gradientUnits="userSpaceOnUse" gradientTransform="matrix(2.402,-72.054,96.707,3.224,2093.759,1588.661)">
			<stop offset="0" stop-color="#4042e2"/>
			<stop offset="1" stop-color="#4f52ff"/>
		</linearGradient>
		<linearGradient id="g29" x2="1" gradientUnits="userSpaceOnUse" gradientTransform="matrix(-152.197,119.506,-93.528,-119.113,2193.953,1405.588)">
			<stop offset="0" stop-color="#09005d"/>
			<stop offset="1" stop-color="#1a0f91"/>
		</linearGradient>
		<linearGradient id="g30" x2="1" gradientUnits="userSpaceOnUse" gradientTransform="matrix(8.18,71.389,-57.328,6.569,2087.057,1408.922)">
			<stop offset="0" stop-color="#ff928e"/>
			<stop offset="1" stop-color="#feb3b1"/>
		</linearGradient>
		<linearGradient id="g31" x2="1" gradientUnits="userSpaceOnUse" gradientTransform="matrix(143.087,112.352,-92.004,117.173,1968.195,1441.017)">
			<stop offset="0" stop-color="#09005d"/>
			<stop offset="1" stop-color="#1a0f91"/>
		</linearGradient>
		<linearGradient id="g32" x2="1" gradientUnits="userSpaceOnUse" gradientTransform="matrix(-2.514,-75.431,158.685,-5.29,2018.545,1641.396)">
			<stop offset="0" stop-color="#4042e2"/>
			<stop offset="1" stop-color="#4f52ff"/>
		</linearGradient>
		<linearGradient id="g33" x2="1" gradientUnits="userSpaceOnUse" gradientTransform="matrix(7.474,65.225,-43.896,5.03,2001.238,1419.174)">
			<stop offset="0" stop-color="#ff928e"/>
			<stop offset="1" stop-color="#feb3b1"/>
		</linearGradient>
		<linearGradient id="g34" x2="1" gradientUnits="userSpaceOnUse" gradientTransform="matrix(-8.813,-276.136,116.513,-3.719,2377.599,1404.88)">
			<stop offset="0" stop-color="#09005d"/>
			<stop offset="1" stop-color="#1a0f91"/>
		</linearGradient>
		<linearGradient id="g35" x2="1" gradientUnits="userSpaceOnUse" gradientTransform="matrix(151.665,634.515,-460.06,109.966,2144.881,716.164)">
			<stop offset="0" stop-color="#4042e2"/>
			<stop offset="1" stop-color="#4f52ff"/>
		</linearGradient>
		<linearGradient id="g36" x2="1" gradientUnits="userSpaceOnUse" gradientTransform="matrix(-2.016,90.055,-48.873,-1.094,2139.931,938.456)">
			<stop offset="0" stop-color="#ff928e"/>
			<stop offset="1" stop-color="#feb3b1"/>
		</linearGradient>
		<linearGradient id="g37" x2="1" gradientUnits="userSpaceOnUse" gradientTransform="matrix(153.968,644.151,-331.525,79.243,2298.446,675.343)">
			<stop offset="0" stop-color="#4042e2"/>
			<stop offset="1" stop-color="#4f52ff"/>
		</linearGradient>
		<linearGradient id="g38" x2="1" gradientUnits="userSpaceOnUse" gradientTransform="matrix(72.977,62.334,-47.525,55.64,2079.601,1158.232)">
			<stop offset="0" stop-color="#ff928e"/>
			<stop offset="1" stop-color="#feb3b1"/>
		</linearGradient>
		<linearGradient id="g39" x2="1" gradientUnits="userSpaceOnUse" gradientTransform="matrix(-47.577,35.526,-45.312,-60.682,1985.954,999.011)">
			<stop offset="0" stop-color="#09005d"/>
			<stop offset="1" stop-color="#1a0f91"/>
		</linearGradient>
		<linearGradient id="g40" x2="1" gradientUnits="userSpaceOnUse" gradientTransform="matrix(2.618,42.541,-14.435,.888,1989.033,962.435)">
			<stop offset="0" stop-color="#ff928e"/>
			<stop offset="1" stop-color="#feb3b1"/>
		</linearGradient>
		<linearGradient id="g41" x2="1" gradientUnits="userSpaceOnUse" gradientTransform="matrix(-116.022,30.08,-43.415,-167.457,2158.803,964.967)">
			<stop offset="0" stop-color="#ff928e"/>
			<stop offset="1" stop-color="#feb3b1"/>
		</linearGradient>
		<linearGradient id="g42" x2="1" gradientUnits="userSpaceOnUse" gradientTransform="matrix(-64.382,-10.389,13.52,-83.787,2100.02,915.779)">
			<stop offset="0" stop-color="#09005d"/>
			<stop offset="1" stop-color="#1a0f91"/>
		</linearGradient>
		<linearGradient id="g43" x2="1" gradientUnits="userSpaceOnUse" gradientTransform="matrix(-48.55,-69.082,74.552,-52.394,2149.998,1011.402)">
			<stop offset="0" stop-color="#ff928e"/>
			<stop offset="1" stop-color="#feb3b1"/>
		</linearGradient>
		<linearGradient id="g44" x2="1" gradientUnits="userSpaceOnUse" gradientTransform="matrix(25.232,0,0,26.4,1531.71,968.931)">
			<stop offset="0" stop-color="#dae3fe"/>
			<stop offset="1" stop-color="#e9effd"/>
		</linearGradient>
		<linearGradient id="g45" x2="1" gradientUnits="userSpaceOnUse" gradientTransform="matrix(48.644,0,0,22.801,1519.937,999.354)">
			<stop offset="0" stop-color="#dae3fe"/>
			<stop offset="1" stop-color="#e9effd"/>
		</linearGradient>
		<linearGradient id="g46" x2="1" gradientUnits="userSpaceOnUse" gradientTransform="matrix(240.175,0,0,14.662,1602.497,999.353)">
			<stop offset="0" stop-color="#dae3fe"/>
			<stop offset="1" stop-color="#e9effd"/>
		</linearGradient>
		<linearGradient id="g47" x2="1" gradientUnits="userSpaceOnUse" gradientTransform="matrix(131.228,0,0,13.328,1604.956,1023.531)">
			<stop offset="0" stop-color="#dae3fe"/>
			<stop offset="1" stop-color="#e9effd"/>
		</linearGradient>
		<linearGradient id="g48" x2="1" gradientUnits="userSpaceOnUse" gradientTransform="matrix(98.421,0,0,13.328,1744.386,1023.531)">
			<stop offset="0" stop-color="#dae3fe"/>
			<stop offset="1" stop-color="#e9effd"/>
		</linearGradient>
		<linearGradient id="g49" x2="1" gradientUnits="userSpaceOnUse" gradientTransform="matrix(2.006,527.342,-344.128,1.309,1044.438,926.409)">
			<stop offset="0" stop-color="#09005d"/>
			<stop offset="1" stop-color="#1a0f91"/>
		</linearGradient>
		<linearGradient id="g50" x2="1" gradientUnits="userSpaceOnUse" gradientTransform="matrix(640.284,857.481,-818.058,610.847,342.673,1272.259)">
			<stop offset="0" stop-color="#4042e2"/>
			<stop offset="1" stop-color="#4f52ff"/>
		</linearGradient>
		<linearGradient id="g51" x2="1" gradientUnits="userSpaceOnUse" gradientTransform="matrix(56.189,0,0,10.874,665.572,983.461)">
			<stop offset="0" stop-color="#4042e2"/>
			<stop offset="1" stop-color="#4f52ff"/>
		</linearGradient>
		<linearGradient id="g52" x2="1" gradientUnits="userSpaceOnUse" gradientTransform="matrix(190.808,0,0,190.808,593.477,1093.761)">
			<stop offset="0" stop-color="#dae3fe"/>
			<stop offset="1" stop-color="#e9effd"/>
		</linearGradient>
		<linearGradient id="g53" x2="1" gradientUnits="userSpaceOnUse" gradientTransform="matrix(118.65,0,0,99.885,629.557,1139.222)">
			<stop offset="0" stop-color="#4042e2"/>
			<stop offset="1" stop-color="#4f52ff"/>
		</linearGradient>
		<linearGradient id="g54" x2="1" gradientUnits="userSpaceOnUse" gradientTransform="matrix(30.389,0,0,79.963,545.988,1341.677)">
			<stop offset="0" stop-color="#4042e2"/>
			<stop offset="1" stop-color="#4f52ff"/>
		</linearGradient>
		<linearGradient id="g55" x2="1" gradientUnits="userSpaceOnUse" gradientTransform="matrix(-296.608,322.626,-493.502,-453.703,511.781,1398.107)">
			<stop offset="0" stop-color="#09005d"/>
			<stop offset="1" stop-color="#1a0f91"/>
		</linearGradient>
		<linearGradient id="g56" x2="1" gradientUnits="userSpaceOnUse" gradientTransform="matrix(16.926,0,0,17.163,413.449,1421.21)">
			<stop offset="0" stop-color="#ff928e"/>
			<stop offset="1" stop-color="#feb3b1"/>
		</linearGradient>
		<linearGradient id="g57" x2="1" gradientUnits="userSpaceOnUse" gradientTransform="matrix(38.744,-225.086,84.06,14.469,-212.506,1318.664)">
			<stop offset="0" stop-color="#09005d"/>
			<stop offset="1" stop-color="#1a0f91"/>
		</linearGradient>
		<linearGradient id="g58" x2="1" gradientUnits="userSpaceOnUse" gradientTransform="matrix(-251.737,273.82,-300.158,-275.952,469.71,1361.177)">
			<stop offset="0" stop-color="#09005d"/>
			<stop offset="1" stop-color="#1a0f91"/>
		</linearGradient>
		<linearGradient id="g59" x2="1" gradientUnits="userSpaceOnUse" gradientTransform="matrix(14.614,0,0,22.46,352.448,1417.693)">
			<stop offset="0" stop-color="#ff928e"/>
			<stop offset="1" stop-color="#feb3b1"/>
		</linearGradient>
		<linearGradient id="g60" x2="1" gradientUnits="userSpaceOnUse" gradientTransform="matrix(37.894,-220.145,61.099,10.517,-82.879,1337.92)">
			<stop offset="0" stop-color="#09005d"/>
			<stop offset="1" stop-color="#1a0f91"/>
		</linearGradient>
		<linearGradient id="g61" x2="1" gradientUnits="userSpaceOnUse" gradientTransform="matrix(-152.492,281.688,-181.539,-98.276,318.147,1576.731)">
			<stop offset="0" stop-color="#fe7062"/>
			<stop offset="1" stop-color="#ff928e"/>
		</linearGradient>
		<linearGradient id="g62" x2="1" gradientUnits="userSpaceOnUse" gradientTransform="matrix(86.471,0,0,101.566,483.099,937.435)">
			<stop offset="0" stop-color="#ff928e"/>
			<stop offset="1" stop-color="#feb3b1"/>
		</linearGradient>
		<linearGradient id="g63" x2="1" gradientUnits="userSpaceOnUse" gradientTransform="matrix(-60.931,138.631,-58.723,-25.81,504.283,957.629)">
			<stop offset="0" stop-color="#ff928e"/>
			<stop offset="1" stop-color="#feb3b1"/>
		</linearGradient>
		<linearGradient id="g64" x2="1" gradientUnits="userSpaceOnUse" gradientTransform="matrix(164.881,-188.436,133.685,116.974,454.154,1027.724)">
			<stop offset="0" stop-color="#ff928e"/>
			<stop offset="1" stop-color="#feb3b1"/>
		</linearGradient>
		<linearGradient id="g65" x2="1" gradientUnits="userSpaceOnUse" gradientTransform="matrix(-174.403,322.162,-205.271,-111.124,122.496,1549.067)">
			<stop offset="0" stop-color="#fe7062"/>
			<stop offset="1" stop-color="#ff928e"/>
		</linearGradient>
		<linearGradient id="g66" x2="1" gradientUnits="userSpaceOnUse" gradientTransform="matrix(-18.644,140.864,-105.471,-13.959,427.531,995.733)">
			<stop offset="0" stop-color="#ff928e"/>
			<stop offset="1" stop-color="#feb3b1"/>
		</linearGradient>
		<linearGradient id="g67" x2="1" gradientUnits="userSpaceOnUse" gradientTransform="matrix(-69.024,-24.924,21.392,-59.242,433.353,1012.83)">
			<stop offset="0" stop-color="#ff928e"/>
			<stop offset="1" stop-color="#feb3b1"/>
		</linearGradient>
		<linearGradient id="g68" x2="1" gradientUnits="userSpaceOnUse" gradientTransform="matrix(-0.853,-90.953,92.382,-0.867,367.903,985.936)">
			<stop offset="0" stop-color="#09005d"/>
			<stop offset="1" stop-color="#1a0f91"/>
		</linearGradient>
		<linearGradient id="g69" x2="1" gradientUnits="userSpaceOnUse" gradientTransform="matrix(-17.857,-6.448,3.19,-8.835,399.946,981.205)">
			<stop offset="0" stop-color="#ff928e"/>
			<stop offset="1" stop-color="#feb3b1"/>
		</linearGradient>
		<linearGradient id="g70" x2="1" gradientUnits="userSpaceOnUse" gradientTransform="matrix(-100.862,-80.69,56.954,-71.192,352.604,1227.165)">
			<stop offset="0" stop-color="#ff928e"/>
			<stop offset="1" stop-color="#feb3b1"/>
		</linearGradient>
		<linearGradient id="g71" x2="1" gradientUnits="userSpaceOnUse" gradientTransform="matrix(-47.577,35.526,-45.312,-60.682,399.777,1163.939)">
			<stop offset="0" stop-color="#09005d"/>
			<stop offset="1" stop-color="#1a0f91"/>
		</linearGradient>
		<linearGradient id="g72" x2="1" gradientUnits="userSpaceOnUse" gradientTransform="matrix(-20.925,15.625,-20.124,-26.95,383.052,1178.108)">
			<stop offset="0" stop-color="#ff928e"/>
			<stop offset="1" stop-color="#feb3b1"/>
		</linearGradient>
	</defs>
	<style>
		.s0 { fill: url(#g1) } 
		.s1 { fill: #91b3fa } 
		.s2 { fill: #7d97f4 } 
		.s3 { fill: #bdd0fb } 
		.s4 { fill: #dce5fe } 
		.s5 { fill: #f0f0f0 } 
		.s6 { fill: url(#g2) } 
		.s7 { fill: url(#g3) } 
		.s8 { fill: #ffffff } 
		.s9 { fill: url(#g4) } 
		.s10 { fill: url(#g5) } 
		.s11 { fill: url(#g6) } 
		.s12 { fill: url(#g7) } 
		.s13 { fill: url(#g8) } 
		.s14 { fill: url(#g9) } 
		.s15 { fill: url(#g10) } 
		.s16 { fill: url(#g11) } 
		.s17 { fill: url(#g12) } 
		.s18 { fill: url(#g13) } 
		.s19 { fill: url(#g14) } 
		.s20 { fill: url(#g15) } 
		.s21 { fill: url(#g16) } 
		.s22 { fill: url(#g17) } 
		.s23 { fill: url(#g18) } 
		.s24 { fill: url(#g19) } 
		.s25 { fill: url(#g20) } 
		.s26 { fill: url(#g21) } 
		.s27 { fill: url(#g22) } 
		.s28 { fill: url(#g23) } 
		.s29 { fill: url(#g24) } 
		.s30 { fill: url(#g25) } 
		.s31 { fill: url(#g26) } 
		.s32 { fill: url(#g27) } 
		.s33 { fill: url(#g28) } 
		.s34 { fill: url(#g29) } 
		.s35 { fill: url(#g30) } 
		.s36 { fill: url(#g31) } 
		.s37 { fill: url(#g32) } 
		.s38 { fill: url(#g33) } 
		.s39 { fill: url(#g34) } 
		.s40 { fill: url(#g35) } 
		.s41 { fill: url(#g36) } 
		.s42 { fill: url(#g37) } 
		.s43 { fill: url(#g38) } 
		.s44 { fill: url(#g39) } 
		.s45 { fill: url(#g40) } 
		.s46 { fill: url(#g41) } 
		.s47 { fill: url(#g42) } 
		.s48 { fill: url(#g43) } 
		.s49 { fill: url(#g44) } 
		.s50 { fill: url(#g45) } 
		.s51 { fill: url(#g46) } 
		.s52 { fill: url(#g47) } 
		.s53 { fill: url(#g48) } 
		.s54 { fill: url(#g49) } 
		.s55 { fill: url(#g50) } 
		.s56 { fill: url(#g51) } 
		.s57 { fill: url(#g52) } 
		.s58 { fill: url(#g53) } 
		.s59 { fill: url(#g54) } 
		.s60 { fill: url(#g55) } 
		.s61 { fill: url(#g56) } 
		.s62 { fill: url(#g57) } 
		.s63 { fill: url(#g58) } 
		.s64 { fill: url(#g59) } 
		.s65 { fill: url(#g60) } 
		.s66 { fill: url(#g61) } 
		.s67 { fill: url(#g62) } 
		.s68 { fill: url(#g63) } 
		.s69 { fill: url(#g64) } 
		.s70 { fill: url(#g65) } 
		.s71 { fill: url(#g66) } 
		.s72 { fill: url(#g67) } 
		.s73 { fill: url(#g68) } 
		.s74 { fill: url(#g69) } 
		.s75 { fill: url(#g70) } 
		.s76 { fill: url(#g71) } 
		.s77 { fill: url(#g72) } 
	</style>
	<g id="Illustration">
		<g id="&lt;Group&gt;">
			<path id="&lt;Path&gt;" class="s0" d="m141 750.2c26 46 67.4 84.7 99.3 127.8 92 124.4-3.8 270 38.3 404.1 36.6 116.8 188.8 148.1 300.2 152.9 187.5 8 374.9-4 555.7-54.9 125.5-35.3 251.1-81.5 383.4-84.3 135.2-2.8 262.4 51.4 393 77.1 143.4 28.2 315-2.4 349.6-162.6 21.4-99.2-36.3-190.6-41.7-288.3-7.1-129.3 121.8-200.3 138.5-321.2 10.5-76.3-28.8-144.4-80.1-199.5-54.1-58.2-126.8-109.6-210.3-114.4-87.3-5-165.1 40.8-246.7 62.7-229.2 61.4-359.3-143.6-570.2-172.2-95.1-12.9-212-6.7-298.4 37.5-80.3 41.2-119.2 132.7-209.3 159.5-95.4 28.5-182.6-28.3-273.2-46.5-93.8-18.8-182.5 14.6-241.2 87.7-56.9 70.9-118.4 164.3-111.4 257.9 2.2 28.4 11.4 53.5 24.5 76.7z"/>
			<g id="&lt;Group&gt;">
				<g id="&lt;Group&gt;">
					<path id="&lt;Path&gt;" class="s1" d="m714.8 1406.9c-55.9 11.2-127.3-49.8-150.3-116.4-23.6-68.5 19.8-97.2 19.4-192.3-0.4-108-56.6-124.3-93.7-269.9-8.4-32.9-56.9-223 3.2-258.6 55.6-33 211.8 61.6 239.2 182.6 19.5 86.3-40.8 122.6-17.8 223.1 20.3 88.2 73.4 89.4 93.8 174.5 24.8 103.6-20.3 242.3-93.8 257z"/>
					<path id="&lt;Path&gt;" class="s2" d="m710.8 1433.1c15.1-116.4-14.4-296-41.7-426.1-29.5-140.9-63.1-255.8-63.5-257l-4.6 1.4c0.3 1.1 33.9 115.9 63.4 256.6 27.2 129.8 56.6 308.8 41.6 424.5z"/>
				</g>
				<g id="&lt;Group&gt;">
					<path id="&lt;Path&gt;" class="s3" d="m650.5 1393.9c73.3-38.2 98.4-169.4 56.7-212.1-28.2-28.8-68.6 1.5-107.5-28.3-49.8-38.2-13.2-110-52.3-203.2-33.3-79.2-113.2-154.3-159.8-138.9-48.9 16.1-74.6 135.7-32.9 207.6 27.2 46.8 68.7 49.1 77.7 92.6 10.4 50.5-40.1 73.6-40.3 122.5-0.5 87.9 161.3 210.4 258.4 159.8z"/>
					<path id="&lt;Path&gt;" class="s1" d="m610.9 1427.5q0.6 0 1.3-0.3c1.5-0.7 2.1-2.5 1.4-4-97.3-200.3-125.8-432.7-126.1-435.1-0.2-1.6-1.6-2.8-3.3-2.6-1.6 0.2-2.8 1.7-2.6 3.3 0.3 2.4 28.9 235.8 126.6 437 0.5 1.1 1.6 1.7 2.7 1.7z"/>
					<path id="&lt;Path&gt;" class="s4" d="m411.4 1048.3q0.5 0 0.9-0.3c0.6-0.5 0.7-1.4 0.2-2-30.7-39.4-64.7-98.6-52.4-156.8 7.2-34.7 27.8-52.8 28-53 0.6-0.5 0.6-1.4 0.1-2-0.5-0.6-1.4-0.6-2-0.1-0.9 0.7-21.4 18.9-28.9 54.5-6.9 32.7-3.3 86.9 53 159.2 0.2 0.3 0.7 0.5 1.1 0.5z"/>
					<path id="&lt;Path&gt;" class="s5" d="m657.1 1376.4c0.4 0 0.9-0.2 1.1-0.6 47.2-68.8 63.3-122 47.8-158.1-13.7-32-48.4-38-48.7-38.1-0.8-0.1-1.5 0.4-1.6 1.2-0.2 0.8 0.4 1.5 1.1 1.7 0.4 0 33.5 5.8 46.6 36.4 15 35.1-1 87.3-47.5 155.3-0.5 0.6-0.3 1.5 0.4 2q0.3 0.2 0.8 0.2z"/>
				</g>
			</g>
			<g id="&lt;Group&gt;">
				<g id="&lt;Group&gt;">
					<path id="&lt;Path&gt;" class="s1" d="m1772.2 1406.9c55.9 11.2 127.3-49.8 150.3-116.4 23.7-68.5-19.7-97.2-19.4-192.3 0.4-108 56.6-124.3 93.8-269.9 8.3-32.9 56.9-223-3.3-258.6-55.6-33-211.8 61.6-239.2 182.6-19.5 86.3 40.8 122.6 17.8 223.1-20.2 88.2-73.4 89.4-93.8 174.5-24.7 103.6 20.4 242.3 93.8 257z"/>
					<path id="&lt;Path&gt;" class="s2" d="m1776.2 1433.1c-15-116.4 14.4-296 41.7-426.1 29.6-140.9 63.1-255.8 63.5-257l4.6 1.4c-0.3 1.1-33.8 115.9-63.4 256.6-27.2 129.8-56.5 308.8-41.5 424.5z"/>
				</g>
				<g id="&lt;Group&gt;">
					<path id="&lt;Path&gt;" class="s3" d="m1836.6 1393.9c-73.4-38.2-98.5-169.4-56.8-212.1 28.2-28.8 68.6 1.5 107.6-28.3 49.7-38.2 13.1-110 52.2-203.2 33.3-79.2 113.2-154.3 159.8-138.9 48.9 16.1 74.6 135.7 32.9 207.6-27.1 46.8-68.7 49.1-77.7 92.6-10.4 50.5 40.1 73.6 40.4 122.5 0.5 87.9-161.4 210.4-258.4 159.8z"/>
					<path id="&lt;Path&gt;" class="s1" d="m1876.2 1427.5q-0.7 0-1.3-0.3c-1.5-0.7-2.1-2.5-1.4-4 97.2-200.3 125.7-432.7 126-435.1 0.2-1.6 1.7-2.8 3.3-2.6 1.6 0.2 2.8 1.7 2.6 3.3-0.3 2.4-28.9 235.8-126.6 437-0.5 1.1-1.5 1.7-2.6 1.7z"/>
					<path id="&lt;Path&gt;" class="s4" d="m2075.6 1048.3q-0.4 0-0.8-0.3c-0.7-0.5-0.8-1.4-0.3-2 30.7-39.4 64.7-98.6 52.5-156.8-7.3-34.7-27.8-52.8-28.1-53-0.5-0.5-0.6-1.4-0.1-2 0.5-0.6 1.4-0.6 2-0.1 0.9 0.7 21.5 18.9 29 54.5 6.9 32.7 3.2 86.9-53 159.2-0.3 0.3-0.7 0.5-1.2 0.5z"/>
					<path id="&lt;Path&gt;" class="s5" d="m1830 1376.4c-0.5 0-0.9-0.2-1.2-0.6-47.2-68.8-63.3-122-47.8-158.1 13.7-32 48.4-38 48.7-38.1 0.8-0.1 1.5 0.4 1.7 1.2 0.1 0.8-0.4 1.5-1.2 1.7-0.3 0-33.5 5.8-46.6 36.4-15 35.1 1 87.3 47.5 155.3 0.5 0.6 0.3 1.5-0.3 2q-0.4 0.2-0.8 0.2z"/>
				</g>
			</g>
			<g id="&lt;Group&gt;">
				<path id="&lt;Path&gt;" class="s6" d="m633.9 724.7v613.4c0 45.2 39.7 81.8 88.6 81.8h1030c48.9 0 88.6-36.6 88.6-81.8v-613.4z"/>
				<path id="&lt;Path&gt;" class="s7" d="m1539.9 542.1l-261.8-158.4c-25.5-15.5-55.7-15.5-81.2-0.1l-261.8 158.4-302.4 183 302.4 182.4 302.4 182.5 302.4-182.7 302.4-182.2z"/>
				<g id="&lt;Group&gt;" style="mix-blend-mode: soft-light">
					<g id="&lt;Group&gt;">
						<path id="&lt;Path&gt;" class="s8" d="m657.6 1393.4c-0.5 0-1-0.2-1.4-0.6-0.9-0.7-1-2.1-0.2-3l377.2-424.3c0.7-0.9 2.1-1 3-0.2 0.8 0.8 0.9 2.1 0.1 3l-377.2 424.4c-0.4 0.4-1 0.7-1.5 0.7z"/>
					</g>
					<g id="&lt;Group&gt;">
						<path id="&lt;Path&gt;" class="s8" d="m1817.4 1393.4c-0.5 0-1.1-0.3-1.5-0.7l-377.2-424.4c-0.8-0.9-0.7-2.2 0.1-3 0.9-0.8 2.3-0.7 3 0.2l377.2 424.3c0.8 0.9 0.7 2.3-0.2 3-0.4 0.4-0.9 0.6-1.4 0.6z"/>
					</g>
				</g>
			</g>
			<g id="&lt;Group&gt;">
				<g id="&lt;Group&gt;">
					<g id="&lt;Group&gt;">
						<path id="&lt;Path&gt;" class="s9" d="m1635.4 1103.4c0 0-12.4-14.9 4.5-24.1 16.9-9.2 43.4 0.9 46.8 20.4 3.4 19.6 20.2 8 27.5 3.7 7.3-4.3 27.8-10.1 33 12.2 2 8.8-0.6 20.1 3.2 28.3 5.3 11.3 22.5 8.4 31.9 12.7 12.2 5.7 18.5 16.5 12.2 29.2-9.8 19.6-29 32-18.6 49 10.4 17-31.5 55.2-45.8 19.8-14.4-35.5-36.7-29.5-54.7-31.7-18-2.2-27.2-17.8-22.3-33.7 4.9-15.9-1.5-25.4-8.2-32.1-6.8-6.7-29.4-35.7-9.5-53.7z"/>
						<g id="&lt;Group&gt;">
							<path id="&lt;Path&gt;" class="s10" d="m1609.2 1293.5c0 0-13.5 2.1-28.8 12.3-2.4 1.6-3.7 4.4-3.3 7.2 1.8 14.5 9.3 61.3 34 107 1.4 2.4 1.7 5.2 1.2 7.9l-4.4 20-7.9 7.5h20.5l13.7-37-5.8-1.8c-4.6-1.5-7.7-5.7-7.8-10.4l-0.7-39.7c0.6-17.7-10.8-29.9-10.8-29.9l32.8-1.6z"/>
							<path id="&lt;Path&gt;" class="s11" d="m1591.9 1459c-1.8 2.5 20.2 5.7 31.3 0.4 0 0 15.4-26.9 15.4-40.7 0 0-1.2-2.8-10.2-2.1 0 0-5.2 31.7-10.7 35.3-5.5 3.5-15.3 0.3-15.3 0.3 0 0-7.7 3.2-10.5 6.8z"/>
							<path id="&lt;Path&gt;" class="s12" d="m1637.7 1337.2c-0.1-0.3-35.3-4.3-35.3-4.3 0 0 1.2 10.7-2.4 25.4-3.6 14.7-55.2 78.5-55.2 78.5l5.4 17.2c-16.8 5.8-33.2 6.7-49.4 2.9l33.5-20.1c0 0 31.4-107 50.6-126.1l35.3-12.1z"/>
							<path id="&lt;Path&gt;" class="s13" d="m1716.6 1274.9c0 0 20.2 30.1 21.9 43.9 1.7 13.7-5.5 19.3-26.8 20.2-21.2 0.9-78 0.9-78 0.9l-48.4-41.3c0 0 35.3-12.6 44.5-16.2 9.1-3.6 86.8-7.5 86.8-7.5z"/>
							<path id="&lt;Path&gt;" class="s14" d="m1548.1 1448.2c0 0 5.9 5.6 1.9 11.9 0 0-46.1 8.2-58.7 4.5 0 0 2.6-6 16.7-12.7l-1 0.8c-1.3 1-0.5 3.1 1.1 3 9.3-0.5 28.6-2.2 40-7.5z"/>
						</g>
						<path id="&lt;Path&gt;" class="s15" d="m1661.8 1270.9c0 0-23.6-22.4-35.2-37.3-6.3-8.1-8.2-18.6-5.3-28.4 5.3-17.9 14.7-36.4 15.6-39.3 1.3-4.4 27.7-4.2 27.7-4.2 0 0 52.1 33.8 72.5 91l-23 7.2c0 0-13.5-22.8-27-37.3 0 0 23.3 30.7 24.1 43.2z"/>
						<path id="&lt;Path&gt;" class="s16" d="m1633.7 1141.3c0.2 0.9 7.1 23.8 7.7 24.3 0.5 0.4 15.1 1.2 22-3.5l-11.7-24.4z"/>
						<path id="&lt;Path&gt;" class="s17" d="m1645 1093.2c0 0-12.5 5.3-20.9 23.3-8.5 18-2.2 26.3 5.8 27.5 7.9 1.1 19.8 0.9 32.4-10.7 12.5-11.6-1.1-46.3-17.3-40.1z"/>
						<path id="&lt;Path&gt;" class="s18" d="m1653.8 1123.7c0 0 9.4-26.4-13.9-26.7l-5.5 3.9c0 0-8.6-14.6 5.5-21.6 14-7 35-0.8 41 18.2 6 18.9 2.5 31.2-7.5 40.2-9.9 9.1-14-1.2-14-1.2 0 0 5.4-8.5 3.2-13-2.2-4.5-7.3 0.9-7.3 0.9z"/>
						<path id="&lt;Path&gt;" class="s19" d="m1651.3 1127.9c0 0 4.8-13.6 11.1-8.2 6.4 5.4-5.1 12.6-9.6 14.9z"/>
						<path id="&lt;Path&gt;" class="s20" d="m1613.8 1272.6l17.3-16.7 24 10.1c0 0 23.8 3.7 37.5 0 13.6-3.7 13.6-3.7 13.6-3.7l30.9-9.6 4.9 13.7c1.2 3.5-0.1 7.3-3.1 9.5-2.6 1.9-5.8 4-7.8 4.8-4 1.8-100.1-1.2-100.1-1.2z"/>
					</g>
					<g id="&lt;Group&gt;" style="mix-blend-mode: soft-light">
						<path id="&lt;Path&gt;" class="s3" d="m1739.7 1125.3l-0.9-0.1c0.7-6.6-0.3-10.9-3.3-13.4-5.9-4.8-18-1-28.7 2.3-5.4 1.7-10.6 3.3-14.1 3.5-2.8 0.1-5-0.6-6.6-2.2-2.9-2.9-2.7-7.6-2.7-7.8h0.8c0 0.1-0.2 4.6 2.5 7.2q2.1 2.2 5.9 2c3.5-0.2 8.6-1.8 14-3.5 10.9-3.4 23.2-7.2 29.4-2.1 3.2 2.6 4.4 7.2 3.7 14.1z"/>
					</g>
					<g id="&lt;Group&gt;" style="mix-blend-mode: soft-light">
						<path id="&lt;Path&gt;" class="s3" d="m1765.2 1224c-2-8 3.2-14.7 9.3-22.4 4.3-5.6 9.2-11.9 11.9-19.5 1.2-3.7 1-7-0.8-9.9-5.7-9.2-24.3-11.9-24.5-11.9l0.1-0.8c0.8 0.1 19.2 2.7 25.1 12.2 1.9 3.2 2.2 6.8 0.9 10.6-2.7 7.8-7.7 14.1-12.1 19.8-5.9 7.6-11 14.1-9.1 21.7z"/>
					</g>
				</g>
				<g id="&lt;Group&gt;">
					<path id="&lt;Path&gt;" class="s21" d="m1681.2 1458h-9.2v-98.7h9.2z"/>
					<path id="&lt;Path&gt;" class="s22" d="m1716.6 1459.9h-80c0-3.3 2.7-5.9 6-5.9h68c3.3 0 6 2.6 6 5.9z"/>
					<path id="&lt;Path&gt;" class="s23" d="m1728.5 1355.8c0 5.4-4.5 9.9-9.9 9.9h-80.9c-5.4 0-9.8-4.5-9.8-9.9v-8.8c0-5.4 4.4-9.8 9.8-9.8h80.9c5.4 0 9.9 4.4 9.9 9.8z"/>
				</g>
				<g id="&lt;Group&gt;">
					<path id="&lt;Path&gt;" class="s24" d="m1679.3 1280.5q-0.1 0-0.2 0l-100.5-0.1c-2.5 0-4.5-2.1-4.5-4.5 0-2.5 2-4.6 4.5-4.5l100.5 0.1c2.5 0 4.5 2 4.5 4.5 0 2.4-1.9 4.3-4.3 4.5z"/>
					<path id="&lt;Path&gt;" class="s25" d="m1488.2 1189.2h83.7c6.2 0 11.8 3.6 14.5 9.1l38.7 82.1h-104.1c-4 0-7.5-2.4-9-6.1l-30-76c-1.7-4.4 1.5-9.1 6.2-9.1z"/>
				</g>
				<g id="&lt;Group&gt;">
					<path id="&lt;Path&gt;" class="s26" d="m1819.8 1284.1c0.3-1.1 0-2.3-0.8-3.2-0.8-0.9-2-1.4-3.2-1.4h-419.5c-1.7 0-3.2 0.8-4 2.1-0.9 1.3-1 2.9-0.4 4.3l4.6 9.2c1 2.1 3.3 3.5 5.8 3.5h410.6c2.3 0 4.3-1.6 4.7-3.7z"/>
					<g id="&lt;Group&gt;">
						<path id="&lt;Path&gt;" class="s27" d="m1419.8 1478.5q-0.7 0-1.5-0.3c-1.8-0.8-2.7-3-1.9-4.9l77.2-183.7c0.8-1.9 3-2.8 4.9-1.9 1.8 0.8 2.7 3 1.9 4.9l-77.2 183.6c-0.6 1.5-2 2.3-3.4 2.3z"/>
						<path id="&lt;Path&gt;" class="s28" d="m1506.8 1478.5c-1.5 0-2.8-0.8-3.4-2.3l-77.2-183.6c-0.8-1.9 0-4.1 1.9-4.9 1.9-0.9 4 0 4.8 1.9l77.2 183.7c0.9 1.9 0 4.1-1.9 4.9q-0.7 0.3-1.4 0.3z"/>
						<path id="&lt;Path&gt;" class="s29" d="m1723.8 1478.5q-0.7 0-1.4-0.3c-1.9-0.8-2.8-3-2-4.9l77.3-183.7c0.8-1.9 2.9-2.8 4.8-1.9 1.9 0.8 2.7 3 1.9 4.9l-77.2 183.6c-0.6 1.5-1.9 2.3-3.4 2.3z"/>
						<path id="&lt;Path&gt;" class="s30" d="m1810.8 1478.5c-1.4 0-2.8-0.8-3.4-2.3l-77.2-183.6c-0.8-1.9 0.1-4.1 1.9-4.9 1.9-0.9 4.1 0 4.9 1.9l77.2 183.7c0.8 1.9-0.1 4.1-1.9 4.9q-0.8 0.3-1.5 0.3z"/>
					</g>
				</g>
			</g>
			<g id="&lt;Clip Group&gt;" clip-path="url(#cp1)">
				<g id="&lt;Group&gt;">
					<g id="&lt;Group&gt;">
						<path id="&lt;Path&gt;" class="s3" d="m1613 427.9h-845c-14.9 0-27.2 12.9-27.2 27.8v685.7h993.4v-590.4z"/>
						<path id="&lt;Path&gt;" class="s1" d="m1733.7 551l-110.8 1c-3 0-5.3-1.2-7.4-3.2-2-2.1-2.3-4.9-2.3-7.8v-112.3z"/>
					</g>
					<g id="&lt;Group&gt;">
						<path id="&lt;Compound Path&gt;" fill-rule="evenodd" class="s31" d="m1456.7 750.4q0 38.7-12.4 70.8-12.3 32.1-34.9 50.3-22.6 18.3-52.4 18.3-19.8 0-35.1-9.5-15.4-9.6-22.1-25.1h-4.3q-29 34.6-73.8 34.6-47.5 0-74.9-28.6-27.4-28.6-27.4-78.3 0-56.6 36-91.3 35.9-34.6 94-34.6 23 0 50.8 4.4 27.8 4.4 45.8 10.6l-6.2 131.3q0 37.4 20.5 37.4 17.1 0 27.3-25.1 10.3-25.2 10.3-65.7 0-43.2-18-76.4-18-33.2-50.7-50.6-32.6-17.5-74.5-17.5-54.2 0-94.2 22.3-40 22.3-61.4 64.3-21.3 42.1-21.3 97.1 0 74.1 39.6 113.7 39.6 39.6 114.8 39.6 28.4 0 62.5-6.3 34.1-6.3 67.2-18.4v51.6q-57.5 24.4-127.6 24.4-102 0-159.1-53.7-57.1-53.7-57.1-149.3 0-66.3 29.2-120.4 29.1-54.1 83-84.9 53.8-30.7 123.9-30.7 59.1 0 105.5 24.1 46.5 24.2 71.7 68.8 25.3 44.6 25.3 102.8zm-275 33.6q0 56.7 46.2 56.7 24.1 0 36.8-17.1 12.6-17 15.3-55.4l3.5-59.4q-13.7-2.9-30.9-2.9-33.6 0-52.3 20.9-18.6 21-18.6 57.2z"/>
					</g>
				</g>
			</g>
			<g id="&lt;Group&gt;">
				<g id="&lt;Group&gt;">
					<path id="&lt;Compound Path&gt;" fill-rule="evenodd" class="s2" d="m1796.9 423.5c-1.2-104.2 82.5-189.9 186.7-191.1 38.4-0.5 75.5 10.6 107.3 31.9l10.7-10.9c1.4-1.4 3.4-2 5.3-1.5 1.9 0.5 3.4 2 4 3.9l18.8 68.3c0.5 1.9-0.1 3.9-1.4 5.3-1.4 1.4-3.5 2-5.4 1.5l-68.5-17.9c-1.9-0.5-3.4-1.9-3.9-3.9-0.6-1.9 0-3.9 1.4-5.3l12.1-12.3c-24.1-14.6-51.7-22.1-80-21.7-83.5 0.9-150.6 69.6-149.7 153.1 1 83.4 69.7 150.5 153.2 149.5 39.8-0.4 77.3-16.3 105.5-44.7 28.1-28.3 43.8-65.8 44.2-105.5 0.1-2.9 2.3-6.1 5.5-6.1l26.4-0.3c1.7-0.1 2.9 1.2 3.7 2l0.3 0.3c1.2 1.2 1.6 3.4 1.6 4.6-0.4 49.6-19.9 96.4-55 131.8-35.2 35.3-82 55.1-131.7 55.7-104.2 1.2-189.9-82.6-191.1-186.7zm328.9-98q0-0.1-0.1-0.3l-18.8-68.3c-0.1-0.5-0.5-0.9-1-1-0.5-0.1-1 0-1.4 0.4l-13.1 13.3-1.4-1c-31.4-21.4-68.2-32.6-106.4-32.1-101.9 1.2-183.8 85-182.6 186.9 1.1 101.9 85 183.9 186.9 182.7 48.7-0.6 94.5-19.9 128.9-54.5 34.3-34.6 53.5-80.4 53.8-128.9 0-0.6-0.3-1.5-0.4-1.8l-0.3-0.2c-0.2-0.2-0.7-0.7-0.9-0.8l-26.3 0.3c-0.5 0-1.4 1.1-1.4 2.1-0.4 40.8-16.5 79.2-45.4 108.3-29 29.1-67.5 45.4-108.3 45.9-85.8 1-156.4-67.9-157.4-153.6-1-85.7 68-156.2 153.8-157.2 29.9-0.4 59 7.8 84.3 23.7l2.2 1.3-15.7 16c-0.4 0.3-0.5 0.9-0.4 1.4 0.2 0.5 0.5 0.9 1 1l68.6 17.8c0.5 0.2 1 0 1.3-0.3 0.3-0.3 0.5-0.7 0.5-1.1z"/>
				</g>
				<g id="&lt;Group&gt;">
					<path id="&lt;Compound Path&gt;" class="s2" d="m1928.1 458.5h-54.5v-11.5l19.6-19.7q8.7-8.9 11.3-12.4 2.7-3.4 3.9-6.3 1.1-3 1.1-6.1 0-4.7-2.5-7-2.6-2.3-6.9-2.3-4.6 0-8.8 2.1-4.3 2.1-8.9 5.9l-9-10.6q5.8-4.9 9.6-6.9 3.7-2 8.2-3.1 4.5-1.1 10-1.1 7.3 0 12.9 2.6 5.6 2.7 8.7 7.5 3.1 4.8 3.1 11 0 5.3-1.9 10.1-1.9 4.7-5.9 9.6-3.9 5-13.9 14.1l-10.1 9.5v0.7h34z"/>
					<path id="&lt;Compound Path&gt;" fill-rule="evenodd" class="s2" d="m1992.1 442.3h-9.4v16.2h-16.1v-16.2h-33.2v-11.4l34.1-50.3h15.2v48.9h9.4zm-25.5-12.7v-13.3q0-3.3 0.3-9.5 0.3-6.3 0.4-7.3h-0.4q-2 4.3-4.7 8.5l-14.3 21.6z"/>
					<path id="&lt;Compound Path&gt;" class="s2" d="m2038.3 380.6l-29 77.9h-14.8l29.1-77.9z"/>
					<path id="&lt;Compound Path&gt;" class="s2" d="m2050.9 458.5l29.3-64h-38.4v-13.8h55.9v10.3l-29.5 67.5z"/>
				</g>
			</g>
			<g id="&lt;Group&gt;">
				<g id="&lt;Group&gt;">
					<path id="&lt;Compound Path&gt;" fill-rule="evenodd" class="s2" d="m581.7 542.5c-2.8 0-5.2-1.8-6.1-4.4l-9.1-25.7c-12.6-3-24.6-7.9-35.7-14.4l-24.5 12.1c-2.5 1.2-5.5 0.8-7.5-1.2l-25.2-24.8c-2-2-2.5-5-1.3-7.5l11.7-24.6c-6.7-11.1-11.7-23-15-35.5l-25.8-8.6c-2.7-0.9-4.5-3.4-4.5-6.2l-0.3-35.4c0-2.7 1.7-5.2 4.4-6.2l25.7-9.1c3-12.5 7.9-24.5 14.4-35.7l-12.1-24.4c-1.3-2.5-0.8-5.5 1.2-7.5l24.8-25.2c1.9-2 4.9-2.5 7.4-1.3l24.7 11.7c11-6.7 22.9-11.8 35.4-15l8.7-25.9c0.9-2.6 3.4-4.4 6.1-4.4l35.4-0.3q0.1 0 0.1 0c2.8 0 5.2 1.7 6.1 4.3l9.1 25.8c12.6 3 24.6 7.9 35.7 14.4l24.5-12.1c2.5-1.3 5.5-0.8 7.4 1.1l25.3 24.9c2 1.9 2.5 4.9 1.3 7.4l-11.8 24.7c6.8 11 11.8 22.9 15.1 35.4l25.8 8.7c2.7 0.9 4.5 3.3 4.5 6.1l0.3 35.4c0 2.8-1.7 5.3-4.4 6.2l-25.7 9.1c-3 12.6-7.9 24.6-14.4 35.7l12.1 24.5c1.3 2.4 0.8 5.4-1.2 7.4l-24.8 25.3c-2 2-4.9 2.5-7.5 1.3l-24.6-11.8c-11 6.8-22.9 11.8-35.4 15.1l-8.7 25.8c-0.9 2.7-3.4 4.4-6.1 4.5l-35.5 0.3q0 0 0 0zm-50.6-53.9l2 1.2c11.6 7.1 24.2 12.2 37.4 15.1l2.2 0.5 10.2 28.9 33-0.3 9.7-29 2.2-0.5c13.2-3.2 25.7-8.5 37.2-15.8l1.9-1.2 27.6 13.2 23.2-23.6-13.7-27.4 1.2-1.9c7.1-11.6 12.2-24.2 15.2-37.4l0.5-2.2 28.8-10.2-0.3-33-29-9.8-0.5-2.2c-3.2-13.1-8.5-25.6-15.8-37.1l-1.2-1.9 13.2-27.6-23.5-23.2-27.4 13.6-2-1.1c-11.6-7.1-24.2-12.2-37.4-15.2l-2.2-0.5-10.2-28.8-33 0.3-9.7 29-2.2 0.5c-13.2 3.2-25.7 8.5-37.2 15.7l-1.9 1.2-27.6-13.1-23.2 23.5 13.7 27.4-1.2 2c-7.1 11.6-12.2 24.1-15.2 37.3l-0.5 2.2-28.8 10.3 0.3 33 29 9.7 0.5 2.2c3.2 13.2 8.5 25.7 15.8 37.2l1.2 1.9-13.2 27.6 23.5 23.2zm66.6-15.8c-23.7 0-46-9.1-62.8-25.7-17.1-16.8-26.6-39.2-26.8-63.1-0.2-23.9 9-46.5 25.7-63.6 16.8-17 39.2-26.5 63.1-26.7 6.4-0.1 12.8 0.6 19 1.8 2.2 0.5 3.6 2.7 3.2 4.9-0.5 2.2-2.6 3.6-4.8 3.2-5.7-1.2-11.5-1.8-17.3-1.7-21.7 0.2-42.1 8.8-57.3 24.3-15.3 15.5-23.6 36-23.4 57.7 0.2 21.7 8.8 42.1 24.3 57.3 15.5 15.3 36 23.6 57.7 23.4 21.8-0.2 42.1-8.8 57.4-24.3 15.2-15.5 23.5-36 23.3-57.7-0.1-14.8-4.2-29.2-11.8-41.7-1.2-1.9-0.6-4.5 1.3-5.6 2-1.2 4.5-0.6 5.6 1.3 8.5 13.8 13 29.7 13.1 45.9 0.2 23.9-8.9 46.5-25.7 63.5-16.8 17.1-39.2 26.6-63.1 26.8q-0.4 0-0.7 0zm-30.2-215.9z"/>
					<path id="&lt;Compound Path&gt;" fill-rule="evenodd" class="s2" d="m598.1 418.3c-6.2 0-12.4-1.7-17.9-4.9-8.2-4.8-14-12.5-16.4-21.7-2.4-9.2-1.1-18.7 3.7-26.9 4.8-8.2 12.5-14.1 21.7-16.5 18.9-4.9 38.4 6.5 43.3 25.5 2.4 9.1 1.1 18.7-3.7 26.9-4.8 8.2-12.5 14-21.7 16.4q-4.5 1.2-9 1.2zm-6.9-62c-7 1.8-13 6.3-16.7 12.6-3.6 6.3-4.7 13.7-2.8 20.7 1.8 7.1 6.3 13 12.6 16.7 6.3 3.7 13.7 4.7 20.8 2.9 7-1.8 13-6.3 16.7-12.6 3.6-6.3 4.7-13.7 2.8-20.8-3.8-14.6-18.8-23.3-33.4-19.5z"/>
				</g>
				<g id="&lt;Group&gt;">
					<path id="&lt;Compound Path&gt;" fill-rule="evenodd" class="s2" d="m443.6 675.5c-1.3 0-2.6-0.7-3.4-1.8l-7.4-10.1c-6 0.3-11.9-0.2-17.6-1.5l-9.2 8.6c-1.3 1.2-3.2 1.5-4.8 0.6l-15.1-7.9c-1.6-0.8-2.5-2.6-2.2-4.4l1.8-12.3c-4.3-4-8.1-8.6-11.3-13.6l-12.5-0.4c-1.8 0-3.4-1.2-3.9-2.9l-5.1-16.3c-0.5-1.7 0.1-3.6 1.5-4.7l10.1-7.4c-0.3-5.9 0.3-11.8 1.6-17.6l-8.6-9.1c-1.2-1.3-1.5-3.3-0.7-4.9l7.9-15.1c0.9-1.6 2.6-2.5 4.4-2.2l12.4 1.9c4-4.4 8.6-8.2 13.6-11.3l0.3-12.5c0.1-1.8 1.3-3.4 3-4l16.3-5c1.7-0.6 3.6 0 4.6 1.5l7.5 10.1c5.9-0.3 11.8 0.2 17.5 1.6l9.2-8.6c1.3-1.3 3.2-1.5 4.8-0.7l15.1 7.9c1.6 0.8 2.5 2.6 2.2 4.4l-1.8 12.4c4.4 4 8.2 8.5 11.3 13.5l12.5 0.4c1.8 0 3.4 1.2 3.9 3l5.1 16.2c0.5 1.7-0.1 3.6-1.5 4.7l-10.1 7.4c0.3 5.9-0.3 11.8-1.6 17.6l8.6 9.1c1.2 1.3 1.5 3.3 0.7 4.9l-7.9 15.1c-0.9 1.6-2.6 2.5-4.4 2.2l-12.4-1.9c-4 4.4-8.5 8.2-13.6 11.3l-0.3 12.6c-0.1 1.8-1.3 3.3-3 3.9l-16.2 5.1q-0.7 0.2-1.3 0.2zm-7.9-18.2l8.6 11.7 13.7-4.3 0.4-14.5 1.5-0.9c5.5-3.2 10.4-7.3 14.6-12.2l1.1-1.2 14.4 2.1 6.6-12.7-10-10.5 0.5-1.7c1.6-6.2 2.1-12.6 1.7-18.9l-0.2-1.7 11.7-8.6-4.2-13.7-14.5-0.4-0.9-1.5c-3.3-5.5-7.4-10.4-12.2-14.6l-1.3-1.1 2.2-14.4-12.7-6.6-10.6 9.9-1.6-0.4c-6.2-1.6-12.6-2.2-19-1.7l-1.7 0.1-8.6-11.7-13.7 4.3-0.4 14.5-1.5 0.9c-5.5 3.2-10.4 7.3-14.6 12.2l-1.1 1.3-14.4-2.2-6.6 12.7 10 10.6-0.4 1.6c-1.6 6.2-2.2 12.6-1.8 19l0.2 1.7-11.7 8.6 4.2 13.6 14.6 0.5 0.8 1.4c3.3 5.5 7.4 10.4 12.2 14.6l1.3 1.1-2.2 14.4 12.7 6.7 10.6-10 1.6 0.4c6.3 1.6 12.6 2.2 19 1.7zm-6-14.4c-18.9 0-36.3-12.1-42.2-31-7.3-23.2 5.7-48 28.9-55.3 3.1-0.9 6.2-1.5 9.3-1.8 1.6-0.2 3.1 1.1 3.3 2.7 0.2 1.7-1.1 3.2-2.8 3.4-2.7 0.2-5.3 0.8-7.9 1.6-20 6.2-31.2 27.6-25 47.6 6.3 20 27.7 31.2 47.7 25 20-6.3 31.2-27.7 24.9-47.7-2-6.6-5.8-12.4-10.9-17-1.3-1.1-1.4-3.1-0.3-4.3 1.1-1.3 3.1-1.4 4.3-0.3 6 5.3 10.4 12.1 12.8 19.8 7.2 23.2-5.8 48.1-29 55.3-4.4 1.4-8.8 2-13.1 2zm13.3 26.5q0 0 0 0zm-39-3.5q0 0 0 0zm-15.1-7.9q0 0 0 0zm108.6-31.6q0 0 0 0zm-1.8-57.5q0 0 0 0zm-127.5-10.3q0 0 0 0zm102.4-19.7q0 0 0 0zm-69-8.1q0 0 0 0zm-3.1-0.1zm18-3.2q0 0 0 0z"/>
				</g>
			</g>
			<g id="&lt;Group&gt;">
				<path id="&lt;Path&gt;" class="s32" d="m2009 1009c0 0-23.6 22.4-31.4 62.2-7.8 39.8-26.3-56.2-26.3-56.2h-18.7c0 0-7.1 98.9 45.7 106.7 10.1 1.5 20.2-2.5 26.5-10.5 9.7-12.2 24.7-34 28.3-54.8-3.1-32.7-24.1-47.4-24.1-47.4z"/>
				<path id="&lt;Path&gt;" class="s33" d="m2128.8 1467q0.1-0.4-0.1-0.9c-4.4-17.5-22.5-26.5-22.5-26.5l-8.7 0.7c-5 15.4-8.2 23-7.4 27.2q0 0.2 0.1 0.4c7.2 0.6 21.9 1 38.6-0.9z"/>
				<path id="&lt;Path&gt;" class="s34" d="m2090.2 1467.9c0.4 1.4 1.4 2.5 2.7 2.7 10.3 2.2 26.5 0.5 33.3-0.4 1.5-0.2 2.6-1.6 2.6-3.2-16.7 1.9-31.4 1.5-38.6 0.9z"/>
				<path id="&lt;Path&gt;" class="s35" d="m2113.4 1426l-3.8 18.4c-0.3 1.3-1.3 2.3-2.6 2.5-1.5 0.1-3.7 0.2-5.9-0.1-2-0.3-3.3-2.3-3-4.5l2.7-16.3z"/>
				<path id="&lt;Path&gt;" class="s36" d="m2016.2 1467.7c9.3-0.3 14.1-1.4 16.6-2.4q0 1.4 0 2.9c0 1-0.8 1.8-1.8 1.8l-51-0.3c-1.6 0-2.6-1.9-1.9-3.4 6.7 0.6 23.8 1.8 38.1 1.4z"/>
				<path id="&lt;Path&gt;" class="s37" d="m1978.1 1466.3q0.1-0.2 0.2-0.4c4.5-6.3 16-18.8 38.7-24.3l10.9-0.3c0 0 4.8 8.4 4.9 24-2.5 1-7.3 2.1-16.6 2.4-14.3 0.4-31.4-0.8-38.1-1.4z"/>
				<path id="&lt;Path&gt;" class="s38" d="m2029.9 1424.8c-0.1 0.8-1.6 13.1-2.2 17.9-0.1 1.2-1 2-2 2.2-1.8 0.2-4.8 0.4-7.5-0.1-1.4-0.3-2.4-1.7-2.4-3.3v-19.3z"/>
				<path id="&lt;Path&gt;" class="s39" d="m2106.1 1185.1c0 0 17.4 154.8 7.8 251.6 0 0-11.7 0-17.5-2 0 0-18.1-151.3-23.9-194.6-0.2-1.7-2.6-1.7-2.9-0.1-7.2 36.4-35.6 179.3-38.9 192.8 0 0-9.7 3.9-17.5 0 0 0 15.5-207 27.1-243.8z"/>
				<path id="&lt;Path&gt;" class="s40" d="m2140.9 1005.2c0 0-73.5-11.6-131.5 3.8l3.8 60c0 0 15.5 83.2 27.1 120 0 0 44.5 7.7 65.8-3.9 0 0 17.4-104.5 27.1-119.9 0 0 9.7-40.7 7.7-60z"/>
				<path id="&lt;Path&gt;" class="s41" d="m2089.4 942l7.8 59.8c0 0-20.5 9.4-34.8-0.4l3.1-34.9z"/>
				<path id="&lt;Path&gt;" class="s42" d="m2140.9 1005.2c0 0 114.2 123.8-20.3 171.2v-9.7c0 0 50.3-42.5 11.6-100.6 0 0 4.9-55.1 8.7-60.9z"/>
				<path id="&lt;Path&gt;" class="s43" d="m2119.7 1167.7c0 0-17.5-11.6-25.2-7.7-7.7 3.8-7.7 9.7-7.7 9.7 0 0 3.8 7.7 9.6 5.8 5.8-2 19.4 1.9 25.2 0 0 0 1.9-7.8-1.9-7.8z"/>
				<g id="&lt;Group&gt;">
					<path id="&lt;Path&gt;" class="s44" d="m1931.4 952.4l24.6 8.3c3 0.9 5 3.9 5.2 7.7l-1.2 41c0.4 6.4-4.9 12.1-9.9 10.6l-19.7-6.7c-1.9-0.6-3.2-2.6-3.2-5.1l-0.5-51.1c0-2.9 2.4-5.4 4.7-4.7z"/>
				</g>
				<path id="&lt;Path&gt;" class="s45" d="m1926.7 1005.2c0 0-7.7-24.7-3.8-28.8 4-4.2 11.7-15.6 12.3-6.2 0.5 9.3 5.2 49.7-8.5 35z"/>
				<g id="&lt;Group&gt;">
					<path id="&lt;Path&gt;" class="s46" d="m2044.3 931.9c-0.1 0.7 8.7 47.5 8.7 47.5l26.6-5.6-1.7-45.5c0 0-31.6-8.3-33.6 3.6z"/>
					<path id="&lt;Path&gt;" class="s47" d="m2069.9 935.7c1 0.6 1.7 1.7 1.9 2.9l2.7 23.5q0.1 0.6 0 1.1c-0.4 2-1.9 8.1-8.2 6.2-5.4-1.6-10.4-3-14-2.4-2.1 0.4-3.5 2.5-3.1 4.6 0.8 4.4 2.7 13.2 5.4 20.8 0.7 1.9 2.8 3 4.7 2.4 5.2-1.4 15.2-4.5 22.8-8.9 1.2-0.7 2-2 2-3.4-0.2-6.4-0.6-24.2 0.1-29.2 0.6-4.7 6.3-7.4 9-8.5 1-0.4 1.8-1.2 2.2-2.2 1.2-3.1 2.5-9.4-5.4-12.4-2-0.7-3-2.9-2.3-4.9 1.2-3.6 1.6-8.7-4.9-11.8-6.5-3-11.5 0.1-14.4 3-1.2 1.2-3.2 1.6-4.8 0.7-0.7-0.4-1.5-0.5-2.5 0-2 0.9-4.2 0.2-5.2-1.7-1.6-3.3-4.9-6.7-11.4-5.7-11.9 1.9-13.5 15-10.5 22.8 3 7.7 15.8 5 22.3 1.2 4.8-2.8 10.8 0.1 13.6 1.9z"/>
					<path id="&lt;Path&gt;" class="s48" d="m2083.8 961.2c0 0-3.3-12.9 1.7-16.2 5.1-3.3 12.5-1.4 10.7 8.5-2.2 12.3-12.4 7.7-12.4 7.7z"/>
				</g>
				<path id="&lt;Path&gt;" class="s8" d="m2031.8 924.7c-0.1 0-0.3-0.1-0.4-0.2-4.3-9.3 5.8-16.7 5.9-16.8 0.2-0.1 0.4 0 0.6 0.1 0.1 0.2 0.1 0.5-0.1 0.6-0.1 0.1-9.7 7.1-5.6 15.7 0.1 0.2 0 0.5-0.2 0.6q-0.1 0-0.2 0z"/>
			</g>
			<g id="&lt;Group&gt;">
				<g id="&lt;Group&gt;">
					<path id="&lt;Path&gt;" class="s3" d="m1872.1 953.7v84.6c0 6.9-4.2 12.5-9.4 12.5h-308.1c-4.3 0-8.1 3.9-9.1 9.5l-5.5 29.4c-0.8 3.9-4.8 4.2-5.9 0.5l-7.1-24.9c-1.4-4.9-4.9-8.1-8.8-8.1h-13.3c-5.1 0-9.3-5.5-9.3-12.4v-87c0-6.8 4.1-12.4 9.3-12.5l357.7-4c5.3-0.1 9.5 5.5 9.5 12.4z"/>
					<g id="&lt;Group&gt;">
						<path id="&lt;Path&gt;" class="s2" d="m1505.5 996.6c0 21.4 16.9 38.7 37.8 38.7 20.8 0 37.7-17.3 37.7-38.7 0-21.5-16.9-38.8-37.7-38.8-20.9 0-37.8 17.3-37.8 38.8z"/>
						<g id="&lt;Group&gt;">
							<path id="&lt;Path&gt;" class="s49" d="m1556.9 980.8c0 7-5.6 14.5-12.6 14.5-6.9 0-12.6-7.5-12.6-14.5 0-6.9 5.7-11.9 12.6-11.9 7 0 12.6 5 12.6 11.9z"/>
							<path id="&lt;Path&gt;" class="s50" d="m1528.7 1022.2h30.8c3.2 0 6.1-2.1 7.1-5.2l1.6-5.2c1.2-3.8-0.7-7.9-4.5-9.3-12.5-4.6-25.5-4-38.7 0.4-3.8 1.3-5.8 5.3-4.8 9l1.3 4.8c0.9 3.2 3.8 5.5 7.2 5.5z"/>
						</g>
					</g>
					<g id="&lt;Group&gt;">
						<path id="&lt;Path&gt;" class="s51" d="m1842.7 1006.7c0 4-3.4 7.3-7.7 7.3h-224.9c-4.2 0-7.6-3.3-7.6-7.3 0-4.1 3.4-7.3 7.6-7.3h224.9c4.3 0 7.7 3.2 7.7 7.3z"/>
						<path id="&lt;Path&gt;" class="s52" d="m1736.2 1030.2c0 3.7-3 6.7-6.7 6.7h-117.9c-3.7 0-6.6-3-6.6-6.7 0-3.7 2.9-6.7 6.6-6.7h117.9c3.7 0 6.7 3 6.7 6.7z"/>
						<path id="&lt;Path&gt;" class="s53" d="m1842.8 1030.2c0 3.7-3 6.7-6.7 6.7h-85c-3.7 0-6.7-3-6.7-6.7 0-3.7 3-6.7 6.7-6.7h85c3.7 0 6.7 3 6.7 6.7z"/>
					</g>
					<path id="&lt;Path&gt;" class="s2" d="m1734.1 971.1c0 5.2-4.2 9.4-9.3 9.4h-113.6c-5.1 0-9.3-4.2-9.3-9.4v-0.7c0-5.2 4.2-9.4 9.3-9.4h113.6c5.1 0 9.3 4.2 9.3 9.4z"/>
				</g>
			</g>
			<g id="&lt;Group&gt;">
				<g id="&lt;Group&gt;">
					<path id="&lt;Path&gt;" class="s54" d="m837.7 999.4c-0.1 74.3-0.7 330.8-5.1 421.6-0.5 9.6-7.2 17.2-15.5 17.3-40.7 0.6-189.9 1.3-256.4-3.5-13.9-0.9-24.6-14.3-24.5-30.6 0.3-78 2.1-297.5 11.6-397.8 1.1-12 9.4-21.4 19.7-22.4 44.5-4.2 194.5-13.6 251.9-7.9 10.4 1 18.3 11.1 18.3 23.3z"/>
					<path id="&lt;Path&gt;" class="s55" d="m819 1021.8c0.9 60 3.4 259.7-0.5 333.4-0.5 10.8-8 19.4-17.2 19.8-38 1.8-167.5 4.6-223-1.8-10-1.2-17.6-10.8-17.9-22.6-1.5-61.2-5.4-247.2-1.7-320.1 0.6-11.7 8.5-21 18.4-21.8 41.1-3.4 178.8-10.6 226-6.6 8.9 0.8 15.8 9.3 15.9 19.7z"/>
					<path id="&lt;Path&gt;" class="s56" d="m721.8 988.1c-0.1 2.3-1.7 4.2-3.6 4.2-9.6 0.4-36.7 1.5-48.8 2-2.4 0.1-4.3-2.4-3.7-5.1v-0.5c0.4-1.9 1.8-3.3 3.4-3.4 8.2-0.7 32.9-2.6 49.2-1.5 2 0.1 3.5 2 3.5 4.3z"/>
				</g>
				<g id="&lt;Group&gt;">
					<path id="&lt;Path&gt;" class="s57" d="m784.3 1189.2c0 52.7-42.7 95.4-95.4 95.4-52.7 0-95.4-42.7-95.4-95.4 0-52.7 42.7-95.4 95.4-95.4 52.7 0 95.4 42.7 95.4 95.4z"/>
					<path id="&lt;Path&gt;" class="s58" d="m747.6 1214.1c-1.5-5.1-5.2-9.2-10.1-11.2l-6.9-2.7c-5.5-2.2-11.8-0.4-15.4 4.3l-6.1 8.2c-9.6 0.3-20.7-3.3-30.5-10.6-9.2-6.9-15.6-15.9-18.3-24.6-0.1-0.1 0-0.3 0.1-0.3 0.1-0.1 0.2-0.1 0.3 0l5.5-7.4c4.1-5.5 4-13-0.2-18.4l-4.6-5.7c-3.3-4.2-8.4-6.6-13.7-6.5-5.3 0.1-10.3 2.6-13.5 6.9-1.7 2.2-2.9 4.7-3.6 7.4-5.1 17.9 9.3 44.9 35.9 64.8 26.5 19.9 56.5 26.1 72.2 16.2 2.4-1.5 4.4-3.4 6.1-5.6 3.2-4.2 4.2-9.7 2.8-14.8z"/>
				</g>
				<g id="&lt;Group&gt;">
					<path id="&lt;Path&gt;" class="s59" d="m575.3 1421.6c-16 0-29.3-13-29.3-29.1v-49.8c0-0.5 0.4-1 1-1 0.6 0 1 0.5 1 1v49.8c0 14.9 12.4 27 27.3 27 0.6 0 1.1 0.5 1.1 1.1 0 0.6-0.5 1-1.1 1z"/>
				</g>
			</g>
			<g id="&lt;Group&gt;">
				<g id="&lt;Group&gt;">
					<path id="&lt;Path&gt;" class="s60" d="m415.1 1429.8c0 0-2 11.2-3 22.3-0.4 4.3 3 8 7.3 8.2 14.7 0.6 46.2 1.8 57.5 1.3 1.7-0.1 2.9-1.8 2.2-3.4-0.5-1.3-1.5-2.4-2.8-3l-52-23.9z"/>
					<path id="&lt;Path&gt;" class="s61" d="m413.4 1423.3l1.6 13.3c0 0 9.1 4.3 15.4-0.5l-3.8-14.9z"/>
					<path id="&lt;Path&gt;" class="s62" d="m414.6 1172c-0.6 3.5-3.6 174.2 14.6 250.7 0.3 1.2-0.3 2.5-1.5 3-2.8 1.1-8.3 2.8-14.9 3-2 0.1-3.8-1.3-4.4-3.2-5.2-17.8-30.2-106.7-33.5-191.6-3.6-94.9 0-3.2 0-3.2l2.2-58.7z"/>
					<path id="&lt;Path&gt;" class="s63" d="m355.2 1435.7c0 0-3.1 5.6-6.2 20.6-0.5 2.7 1.4 5.3 4.1 5.6 4.9 0.4 12.4 1.1 18.4 1 2.7 0 4.9-2.4 4.5-5.2-0.6-5.4-2.7-14.4-9.1-21.4z"/>
					<path id="&lt;Path&gt;" class="s64" d="m352.4 1418.5l3.8 20.2c0 0 3.6 2.7 10.9 0.7l-1.8-21.7z"/>
					<path id="&lt;Path&gt;" class="s65" d="m342.4 1177.3c-14.9 90 3.3 222.5 9.4 248.5 0.4 1.5 1.7 2.8 3.3 3 2.7 0.5 7.2 0.8 11.6-0.4 1.6-0.5 2.6-1.9 2.7-3.5 0.8-20.9-0.7-149.6 13.2-200.5 0.7-2.6 2.3-4.8 4.5-6.4l27-19.2 2-31z"/>
					<g id="&lt;Group&gt;">
						<path id="&lt;Path&gt;" class="s66" d="m437.5 1006.7c-44.7-0.8-94 11.7-94 11.7-13.4 77.8-2.4 167.5-2.4 167.5 34.6 9.1 73.7-5.6 73.7-5.6 5.7-32.5 32.6-124 32.6-124 21.8-2.7 39.8-9 54.6-17.3-11.3-13.1-16.6-29.8-18.9-39.6-15.8 4.9-31.8 7.5-45.6 7.3z"/>
						<path id="&lt;Path&gt;" class="s67" d="m569.6 940.8c-4.4-5.3-10-2.8-10-2.8-6.6 27.8-41.1 50.4-76.5 61.4 2.3 9.8 7.6 26.5 18.9 39.6 58.9-33.1 67.6-98.2 67.6-98.2z"/>
					</g>
					<g id="&lt;Group&gt;">
						<path id="&lt;Path&gt;" class="s68" d="m568.5 942.2c0.5 1.4-4.9 3.7-8-2.3-0.1-2.9-1.8-15.1-0.1-17.5 9.1-12.4 26.8-28 26.8-28 2.9 3 0.5 5.9 0.5 5.9l-8.6 8.9c1.8 3.2 4 6 5 9.9 0.8 2.9 0.3 6.1-1.2 8.8-1.5 2.7-3.5 6.3-5.5 9-3.7 5.2-8.9 5.3-8.9 5.3z"/>
						<path id="&lt;Path&gt;" class="s69" d="m575.4 915l-7.9 6.6-2.4 6.6 7 7.7c0 0 2.3-13.1 4-15.9 1.8-2.8 0.9-4.2-0.7-5z"/>
					</g>
					<path id="&lt;Path&gt;" class="s70" d="m360.6 1061.7l-17.1-43.3c0 0-41.8 28.4-48.7 64.4 7.9 0.6 21.2 2.7 35.2 9.8 6.4-14.2 30.6-30.9 30.6-30.9z"/>
					<path id="&lt;Path&gt;" class="s71" d="m392.2 970.4l-14.2 41.1c-0.2 0.7 0 1.5 0.7 1.8 3.8 2.2 17.8 8.3 34.7-2.3 1.7-1.1 2.9-3 3.2-5l4.6-35.6z"/>
					<g id="&lt;Group&gt;">
						<path id="&lt;Path&gt;" class="s72" d="m423.2 932.3c0 0 15.6 29.4 13.6 41.3-2 11.8-21.4 11-38.3 1.3l-11.8-31.7z"/>
						<path id="&lt;Path&gt;" class="s73" d="m399.3 959.4c0.7-0.4 0.9-1.2 0.5-1.8-1.3-1.9-3.6-5.8-4.3-9.2 0 0-2.9-1.8 7.1-4.2 10-2.4 24.8-6.1 27.9-14.6 3.1-8.2-4.9-29-17.7-12.5-0.5 0.7-1.4 0.7-1.9 0-2.1-2.7-7.6-8.3-15.2-4.9-7.2 3.2-8 8.4-7.9 11.1 0.1 0.7-0.6 1.4-1.4 1.2-3.6-0.7-12.3-1.3-16.3 7.6-3.3 7.3-1.2 11.5 0.8 13.5 0.6 0.7 0.3 1.7-0.5 2-2.4 0.7-5.5 2.8-5.2 8.3 0.5 7.7 9.1 7 11.5 6.7 0.4-0.1 0.8 0.1 1.1 0.4 2.1 2.3 11.5 12.1 21.8 13.3 0.8 0.1 1.5-0.8 1.2-1.6l-4.4-12.9c-0.2-0.6 0.1-1.2 0.7-1.5z"/>
						<path id="&lt;Path&gt;" class="s74" d="m401 961.2c0 0-11.1-7.7-11.9-1.2-0.8 6.4 10 9.3 15.4 6.9z"/>
					</g>
					<path id="&lt;Path&gt;" class="s75" d="m295.1 1083.1c0 0-28.5 65 41.3 74.5l9.5-7.9c0 0-34.9-19-15.9-57.1 0 0-20.6-17.4-34.9-9.5z"/>
				</g>
				<g id="&lt;Group&gt;">
					<g id="&lt;Group&gt;">
						<path id="&lt;Path&gt;" class="s76" d="m345.2 1117.3l24.6 8.3c3 0.9 5 3.9 5.3 7.7l-1.3 41c0.4 6.4-4.9 12.1-9.9 10.6l-19.7-6.7c-1.9-0.6-3.2-2.6-3.2-5.1l-0.5-51c0-3 2.5-5.4 4.7-4.8z"/>
					</g>
					<path id="&lt;Path&gt;" class="s77" d="m338.9 1165.9c-0.7-0.7-5.3-9.1-4.1-20.3 1.2-11.3-1-16.3 4.2-15.9 5.3 0.4 9.6 1.3 9 6.8-0.6 5.6 1.1 40.7-9.1 29.4z"/>
				</g>
			</g>
		</g>
	</g>
</svg>